# xmcd
#
# Track frame offsets: 
#        150
#        13293
#        28791
#        37555
#        55142
#        74247
#        91258
#        106452
#        124154
#        136094
#        152040
#
# Disc length: 2255 seconds
#
# Revision: 0
# Processed by: cddbd v1.5.2PL0 Copyright (c) Steve Scherf et al.
# Submitted via: ExactAudioCopy v0.95b4
#
DISCID=9008cd0b
DTITLE=Kenny Rogers - Simply The Best [CD3]
DYEAR=2004
DGENRE=Country
TTITLE0=A Stranger In My Place
TTITLE1=My Washington Woman
TTITLE2=It's A Crazy Afternoon
TTITLE3=Let It Be Me
TTITLE4=The Kind Of Fool Love Makes
TTITLE5=Ain't No Sunshine
TTITLE6=How Sweet It Is
TTITLE7=Three Times A Lady
TTITLE8=This Masquerade
TTITLE9=Share Your Love With Me
TTITLE10=Love Don't Live Here Anymore
EXTD=
EXTT0=
EXTT1=
EXTT2=
EXTT3=
EXTT4=
EXTT5=
EXTT6=
EXTT7=
EXTT8=
EXTT9=
EXTT10=
PLAYORDER=
